<?xml version="1.0" standalone="no"?>
<!DOCTYPE svg PUBLIC "-//W3C//DTD SVG 20010904//EN"
 "http://www.w3.org/TR/2001/REC-SVG-20010904/DTD/svg10.dtd">
<svg version="1.0" xmlns="http://www.w3.org/2000/svg"
 width="484.000000pt" height="515.000000pt" viewBox="0 0 484.000000 515.000000"
 preserveAspectRatio="xMidYMid meet">

<g transform="translate(0.000000,515.000000) scale(0.100000,-0.100000)"
fill="#000000" stroke="none">
<path d="M1800 4978 c-5 -13 -115 -320 -244 -683 -311 -877 -378 -1065 -506
-1425 -60 -168 -163 -457 -229 -642 -130 -367 -173 -460 -257 -561 -128 -156
-276 -232 -491 -253 -72 -6 -73 -7 -73 -35 l0 -29 655 0 655 0 0 30 c0 28 -2
30 -39 30 -70 0 -190 28 -258 61 -77 37 -140 96 -171 161 -28 57 -45 159 -37
218 3 25 56 205 117 401 l111 356 261 6 c144 4 408 7 588 7 l327 0 6 38 c53
307 135 535 261 722 64 95 194 217 281 262 147 78 335 101 517 63 175 -36 347
-160 466 -335 101 -148 162 -316 209 -571 68 -369 97 -706 88 -1044 -11 -403
-61 -688 -172 -987 -129 -344 -290 -519 -550 -597 -206 -62 -429 -40 -595 56
-86 50 -203 170 -268 276 -137 220 -228 563 -264 987 -7 89 -13 303 -13 502
l0 348 -351 0 -351 0 -12 -79 c-82 -538 21 -1046 292 -1445 80 -118 301 -340
427 -429 112 -79 381 -215 496 -250 310 -97 636 -83 929 38 123 51 333 165
430 233 109 78 316 287 398 402 83 118 186 321 231 460 195 591 98 1375 -223
1795 -72 94 -263 296 -338 357 -254 206 -592 347 -878 364 -189 12 -430 -26
-650 -102 -71 -24 -134 -45 -138 -47 -5 -1 -73 174 -153 388 -80 215 -194 521
-253 680 l-109 290 -56 3 c-50 3 -57 1 -66 -20z m-66 -1349 l157 -432 -29 -31
c-73 -78 -179 -248 -255 -408 l-37 -78 -255 0 -255 0 13 33 c8 17 121 328 252
690 131 361 241 657 245 657 4 0 78 -194 164 -431z"/>
<path d="M1555 4960 c-3 -5 -2 -10 4 -10 5 0 13 5 16 10 3 6 2 10 -4 10 -5 0
-13 -4 -16 -10z"/>
<path d="M1605 4919 c-29 -26 -38 -29 -50 -19 -18 15 -20 -1 -3 -18 19 -19 44
-14 76 13 32 27 67 33 75 13 3 -8 6 -6 6 4 1 18 -27 38 -53 38 -8 0 -31 -14
-51 -31z"/>
<path d="M1660 4850 l-25 -6 25 -7 c26 -7 34 -4 29 11 -2 4 -15 5 -29 2z"/>
<path d="M1476 4805 c9 -14 19 -24 21 -21 3 3 36 -7 74 -21 56 -21 72 -23 84
-13 19 16 19 31 1 24 -13 -5 -135 33 -146 45 -3 3 -15 7 -28 8 -22 3 -22 2 -6
-22z"/>
<path d="M1460 4701 c-15 -28 -13 -33 9 -19 16 10 31 9 75 -5 31 -10 59 -25
64 -34 7 -12 11 -9 21 17 14 41 14 47 0 33 -8 -8 -26 -6 -67 8 -69 24 -89 24
-102 0z"/>
<path d="M1436 4615 c-23 -23 -20 -35 8 -35 34 0 109 -28 122 -46 10 -12 14
-10 23 17 14 40 14 46 0 32 -13 -13 -92 10 -120 34 -14 12 -19 12 -33 -2z"/>
<path d="M1396 4504 c-9 -8 -16 -18 -16 -22 0 -3 5 -1 12 6 16 16 48 15 48 0
0 -14 20 11 20 25 0 13 -48 7 -64 -9z"/>
<path d="M1541 4459 c-2 -39 -32 -61 -78 -57 -31 2 -38 6 -35 23 2 17 1 17 -8
5 -9 -13 -13 -12 -30 9 -23 27 -24 25 -9 -18 11 -31 52 -61 83 -61 50 0 93 52
83 102 -4 22 -4 22 -6 -3z"/>
<path d="M1326 4318 c-19 -27 -21 -49 -3 -23 16 21 61 16 122 -15 21 -11 40
-19 41 -17 8 10 14 48 6 43 -5 -3 -36 3 -67 14 -73 25 -80 25 -99 -2z"/>
<path d="M1302 4222 c-31 -20 -28 -27 16 -28 30 0 78 -17 123 -41 4 -2 11 9
17 25 9 27 8 28 -17 24 -14 -2 -46 5 -71 16 -41 17 -48 18 -68 4z"/>
<path d="M1268 4133 c-25 -6 -23 -43 2 -43 26 0 122 -37 130 -50 4 -6 11 6 17
25 9 28 9 34 0 27 -13 -11 -91 11 -117 32 -8 7 -23 11 -32 9z"/>
<path d="M1226 4014 c-20 -19 -20 -25 -1 -18 14 6 101 -22 119 -37 5 -5 17 -4
28 2 21 12 25 41 3 33 -8 -3 -39 4 -70 15 -67 25 -60 25 -79 5z"/>
<path d="M1195 3951 c-4 -8 -1 -19 8 -28 19 -20 30 -1 13 22 -10 14 -15 15
-21 6z"/>
<path d="M1281 3929 c-2 -59 47 -77 78 -29 15 23 15 24 -1 12 -22 -17 -52 -8
-66 21 -11 22 -11 22 -11 -4z"/>
<path d="M1156 3838 c-19 -27 -21 -49 -3 -23 16 21 61 16 122 -15 21 -11 39
-19 40 -17 0 1 7 15 14 31 10 25 10 28 -2 18 -11 -9 -27 -7 -72 8 -73 25 -80
25 -99 -2z"/>
<path d="M1132 3761 c-5 -3 -11 -16 -14 -27 -4 -17 -2 -20 13 -17 23 6 114
-24 130 -44 12 -13 14 -13 20 4 13 31 10 38 -17 39 -14 1 -47 13 -74 26 -27
14 -53 22 -58 19z"/>
<path d="M1097 3683 c-4 -3 -7 -12 -7 -20 0 -11 4 -11 20 -1 11 7 20 16 20 20
0 10 -24 10 -33 1z"/>
<path d="M1070 3599 c0 -11 4 -18 9 -15 13 8 124 -32 137 -49 9 -12 13 -8 21
19 10 31 9 32 -12 28 -13 -2 -44 6 -70 17 -61 27 -85 27 -85 0z"/>
<path d="M965 3522 c-16 -11 -37 -27 -45 -37 -14 -17 -14 -17 19 0 73 37 187
-3 222 -79 16 -34 19 -37 19 -16 0 42 -37 108 -72 130 -41 25 -103 26 -143 2z"/>
<path d="M892 3402 c-1 -24 5 -60 14 -79 43 -89 167 -101 237 -23 36 41 35 56
-2 19 -24 -24 -38 -29 -76 -29 -86 0 -160 53 -168 120 -4 33 -4 32 -5 -8z"/>
<path d="M812 3198 c-19 -19 -14 -30 8 -18 11 6 20 15 20 20 0 14 -14 12 -28
-2z"/>
<path d="M800 3127 c0 -19 18 -34 53 -42 15 -4 27 -11 27 -17 0 -5 4 -7 9 -4
12 8 141 -44 141 -57 1 -7 7 -1 15 13 18 32 19 41 2 34 -8 -3 -43 6 -78 19
-50 19 -63 28 -61 43 2 17 2 17 -8 2 -9 -14 -15 -15 -43 -6 -17 6 -38 15 -44
21 -9 7 -13 5 -13 -6z"/>
<path d="M2591 2923 c-38 -158 -65 -313 -88 -503 -15 -119 -18 -218 -17 -555
1 -225 5 -432 10 -460 l9 -50 640 0 640 0 3 31 3 31 -113 6 c-62 4 -169 7
-238 7 -111 0 -129 3 -165 23 -44 25 -95 93 -118 159 -8 24 -102 279 -207 568
-106 289 -220 599 -253 690 -33 91 -63 169 -67 173 -4 5 -22 -49 -39 -120z"/>
<path d="M863 2975 l-28 -24 31 11 c39 14 79 4 110 -27 32 -32 35 -31 22 5
-21 61 -86 78 -135 35z"/>
<path d="M830 2891 c0 -27 36 -68 65 -75 24 -6 77 13 89 32 3 5 -17 7 -44 4
-44 -4 -52 -2 -80 26 -24 25 -30 27 -30 13z"/>
<path d="M745 2669 c-19 -21 -19 -22 -1 -12 21 12 99 -9 125 -32 11 -11 17
-10 32 3 10 9 19 26 19 37 0 16 -2 17 -10 5 -8 -12 -15 -13 -52 -1 -81 24 -92
24 -113 0z"/>
<path d="M722 2610 c1 -13 9 -25 16 -28 17 -5 15 23 -4 39 -14 11 -15 10 -12
-11z"/>
<path d="M811 2598 c-1 -34 18 -68 39 -68 11 0 40 29 40 39 0 5 -10 6 -23 4
-25 -5 -42 10 -50 42 -3 12 -5 5 -6 -17z"/>
<path d="M693 2545 c-9 -25 2 -27 22 -5 17 18 17 20 1 20 -9 0 -19 -7 -23 -15z"/>
<path d="M668 2465 c-4 -19 -2 -23 7 -15 12 10 115 -19 140 -40 10 -8 15 -3
23 18 9 27 8 29 -13 24 -13 -2 -44 6 -70 17 -63 28 -82 27 -87 -4z"/>
<path d="M637 2381 c-3 -14 0 -19 12 -19 24 2 93 -22 112 -39 14 -12 19 -12
33 2 22 23 21 44 -3 38 -16 -4 -69 9 -137 34 -6 2 -14 -5 -17 -16z"/>
<path d="M597 2269 c-3 -13 -1 -19 6 -16 7 2 36 -4 66 -15 69 -23 88 -23 101
1 15 28 13 33 -9 19 -16 -10 -31 -8 -83 10 -76 27 -74 27 -81 1z"/>
<path d="M695 2149 c-22 -4 -80 -8 -130 -9 -141 -2 -142 -4 -44 -89 46 -40 95
-86 109 -102 l26 -28 11 29 c10 27 10 29 -7 20 -14 -7 -26 -3 -52 18 -30 23
-34 31 -26 51 4 13 6 26 4 29 -3 2 -8 -7 -12 -21 l-6 -26 -39 31 c-21 17 -39
35 -39 40 0 13 98 9 103 -4 4 -10 6 -10 6 0 1 8 18 12 50 12 44 0 50 -3 53
-22 3 -18 7 -11 21 26 9 27 16 50 14 51 -1 1 -20 -2 -42 -6z"/>
</g>
</svg>
